# xmcd
# 
# Track frame offsets:
#     150
#     19040
#     43307
#     62292
#     83510
#     109614
#     129202
#     146527
#     164531
#     179739
#     199469
# 
# Disc length: 2915
# 
# Revision: 0
# Processed by: cddbd v1.5.2PL0 Copyright (c) Steve Scherf et al.
# Submitted via: fre:ac v1.0.27
# 
DISCID=930b610b
DTITLE=Djelimady Tounkara - Djely Blues
DYEAR=2014
DGENRE=Blues
TTITLE0=Ankaben
TTITLE1=Diamana Mara Manssa
TTITLE2=Dianamogo
TTITLE3=Sansénésougoro
TTITLE4=Mansa
TTITLE5=Dénibarika
TTITLE6=Djely Blues
TTITLE7=Alloumasson Dianfama
TTITLE8=Sory Mankanbora
TTITLE9=Denandiya
TTITLE10=Niméra Syla
EXTD=
EXTT0=
EXTT1=
EXTT2=
EXTT3=
EXTT4=
EXTT5=
EXTT6=
EXTT7=
EXTT8=
EXTT9=
EXTT10=
PLAYORDER=
